<svg width="24" height="24" viewBox="0 0 24 24" fill="none" xmlns="http://www.w3.org/2000/svg">
<path d="M8.414 13.3431L12.364 17.2931C12.5462 17.4817 12.647 17.7343 12.6447 17.9965C12.6424 18.2587 12.5372 18.5095 12.3518 18.6949C12.1664 18.8803 11.9156 18.9855 11.6534 18.9878C11.3912 18.99 11.1386 18.8892 10.95 18.7071L5.293 13.0501C5.1998 12.9574 5.1259 12.8473 5.0754 12.7259C5.0249 12.6046 4.999 12.4745 4.999 12.3431C4.999 12.2117 5.0249 12.0816 5.0754 11.9602C5.1259 11.8389 5.1998 11.7287 5.293 11.6361L10.95 5.97909C11.0423 5.88359 11.1526 5.80739 11.2746 5.75499C11.3966 5.70259 11.5278 5.67499 11.6606 5.67379C11.7934 5.67269 11.9251 5.69799 12.048 5.74829C12.1709 5.79849 12.2825 5.87279 12.3764 5.96669C12.4703 6.06059 12.5445 6.17219 12.5948 6.29509C12.6451 6.41799 12.6704 6.54969 12.6693 6.68249C12.6681 6.81529 12.6405 6.94649 12.5881 7.06849C12.5357 7.19049 12.4595 7.30079 12.364 7.39309L8.414 11.3431L18 11.3431C18.2652 11.3431 18.5196 11.4484 18.7071 11.636C18.8946 11.8235 19 12.0779 19 12.3431C19 12.6083 18.8946 12.8627 18.7071 13.0502C18.5196 13.2377 18.2652 13.3431 18 13.3431L8.414 13.3431V13.3431Z" fill="#FCD34D"/>
</svg>
